<svg width="800" height="1080" viewBox="0 0 800 1080" fill="none" xmlns="http://www.w3.org/2000/svg">
<path d="M473.29 664.01C458.92 629.66 444.55 595.31 429.71 559.83C419.69 615.67 409.9 670.22 400.11 724.77C399.86 724.74 399.62 724.7 399.37 724.67C389.61 670.22 379.85 615.78 370.09 561.33C369.84 561.27 369.58 561.2 369.33 561.14C355.03 595.17 340.73 629.2 326.42 663.23C325.77 663.3 325.24 663.28 325.76 662.41C329.28 646.28 332.75 630.15 336.32 614.03C341.7 589.72 347.11 565.41 352.64 541.13C353.28 538.32 352.18 536.84 350.25 535.14C313.48 502.68 276.78 470.14 239.98 437.7C237.73 435.71 236.53 433.51 235.84 430.71C219.03 362.54 202.17 294.37 185.33 226.2C181.04 208.82 176.76 191.44 172.57 174.03C171.94 171.41 170.58 169.7 168.38 168.17C148.17 154.06 128.04 139.84 107.88 125.66C107.43 125.34 107.01 124.98 105.87 124.1C123.42 122.52 140.27 121 158.32 119.37C133.4 104.61 109.38 90.38 85.35 76.14C85.4 75.94 85.44 75.74 85.49 75.54C156.93 87.5 228.36 99.45 299.44 111.35C245.86 120.69 211.7 150.58 207.44 206.55C204.09 250.52 224.79 283.91 264.55 302.72C305.69 322.18 343.8 313.59 378.01 283.95C385.1 301.27 392.26 318.73 399.72 336.95C407.12 318.87 414.25 301.47 421.35 284.13C460.48 316.85 502.7 323.6 546.66 296.15C580.51 275.01 595.19 242.45 592.1 202.62C590.22 178.41 579.87 157.74 562.54 140.69C545.24 123.67 524.25 114.46 500.23 111.32C571.3 99.42 642.37 87.52 713.45 75.62C713.54 75.87 713.64 76.12 713.73 76.37C689.86 90.51 666 104.66 641.19 119.36C659.02 120.97 675.88 122.49 693.57 124.09C691.87 125.38 690.74 126.29 689.56 127.12C670.1 140.83 650.64 154.55 631.13 168.19C628.96 169.71 627.66 171.38 627 174.08C606.76 256.25 586.26 338.36 566.3 420.6C563.87 430.62 559.54 438.05 551.72 444.82C517.49 474.44 483.83 504.71 449.81 534.57C446.91 537.12 446.5 539.32 447.28 542.77C456.23 582.49 465.05 622.25 473.9 661.99C473.99 662.4 473.99 662.83 474.03 663.24C474.41 664.11 474.01 664.22 473.29 664.01Z" fill="#0A0A0B"/>
<path d="M352.55 847.66C370.5 847.66 387.61 847.71 404.72 847.6C407.08 847.58 408.14 848.62 409.28 850.41C416.51 861.72 423.85 872.96 431.36 884.54C439.67 872.82 447.77 861.43 455.82 850.01C456.72 848.73 457.38 847.61 459.32 847.62C475.84 847.7 492.37 847.67 508.95 847.67C509.06 849.27 507.96 850.08 507.29 851.04C491.58 873.37 475.87 895.71 460.04 917.96C458.43 920.23 458.31 921.64 460.01 924.02C476.47 947.19 492.76 970.49 509.1 993.76C510.04 995.09 510.92 996.47 512.18 998.34C502.41 998.34 493.22 998.34 484.03 998.34C476.46 998.34 468.88 998.22 461.31 998.4C458.66 998.46 457.05 997.73 455.54 995.44C447.52 983.31 439.29 971.32 430.82 958.84C425.76 965.75 420.93 972.33 416.11 978.92C411.9 984.69 407.65 990.43 403.53 996.27C402.45 997.8 401.31 998.4 399.42 998.39C383.15 998.32 366.89 998.35 350.34 998.35C350.79 996.25 352.23 994.88 353.29 993.37C369.24 970.52 385.19 947.67 401.31 924.94C403.04 922.5 402.73 921.02 401.22 918.82C385.75 896.33 370.36 873.78 354.95 851.24C354.26 850.21 353.58 849.2 352.55 847.66Z" fill="#0B0A0B"/>
<path d="M168.25 751.89C168.25 753.41 168.25 754.9 168.25 756.4C168.25 835.47 168.22 914.53 168.33 993.6C168.34 997.31 167.58 998.51 163.63 998.43C150.6 998.15 137.56 998.25 124.52 998.39C121.85 998.42 121.03 997.8 121.04 994.99C121.12 921.39 121.11 847.79 121.09 774.19C121.09 772.3 121.09 770.88 123.39 769.95C137.87 764.05 152.26 757.94 166.7 751.92C167.04 751.77 167.5 751.89 168.25 751.89Z" fill="#0B0B0B"/>
<path d="M464.2 205.03C467.77 210.88 471.58 213 475.94 211.85C480.15 210.75 483.22 206.87 483.21 202.65C483.2 197.81 480.19 194.63 474.02 192.95C481.67 185.41 497.1 185.6 506.71 193.35C517.31 201.9 520.01 217.07 513 228.59C505.63 240.68 490.67 245.13 477.78 239.08C465.38 233.25 459.62 219.06 464.2 205.03Z" fill="#0B0B0B"/>
<path d="M284.4 205.31C288.13 210.97 291.94 213 296.2 211.83C300.25 210.72 303.21 207.07 303.36 202.99C303.55 198.13 300.97 195.2 294.3 192.71C303 185.13 318.22 185.72 327.71 194.01C337.94 202.94 340.04 217.98 332.64 229.41C325.21 240.89 310.43 244.99 297.91 239.04C285.67 233.21 279.99 219.42 284.4 205.31Z" fill="#0B0B0B"/>
<path d="M351.28 120.27C366.06 122.65 380.87 124.84 395.59 127.5C401.81 128.62 407.55 126.71 413.43 125.83C425.75 123.99 438.01 121.72 450.29 119.65C450.95 119.54 451.64 119.64 453.37 119.64C440.83 125.35 430.32 132.33 421.26 141.41C412.18 150.5 405.23 161.05 399.72 173.3C391.71 155.23 380.12 141.01 364.59 130C359.78 126.59 354.57 123.91 349.41 121.11C349.43 119.5 350.44 120.07 351.28 120.27Z" fill="#0B0B0B"/>
<path d="M351.28 120.27C350.66 120.55 350.04 120.83 349.41 121.12C348.58 120.86 347.75 120.59 346.92 120.33C346.67 119.55 346.89 119.2 347.74 119.43C348.94 119.62 350.24 119.39 351.28 120.27Z" fill="#4C4C4E"/>
<path d="M347.74 119.43C347.47 119.73 347.19 120.03 346.92 120.33C346.2 120 345.48 119.68 344.59 119.28C345.95 118.32 346.86 118.68 347.74 119.43Z" fill="#AFB1B3"/>
<path d="M325.76 662.41C325.98 662.68 326.2 662.96 326.42 663.23C326.15 663.98 325.88 664.73 325.52 665.74C324.51 664.33 325.16 663.38 325.76 662.41Z" fill="#555658"/>
<path d="M473.29 664.01C473.54 663.76 473.79 663.5 474.04 663.25C474.95 664.21 475.18 665.26 474.26 666.89C473.86 665.7 473.58 664.86 473.29 664.01Z" fill="#8C8E90"/>
<path fill-rule="evenodd" clip-rule="evenodd" d="M522.12 966.831C538.58 993.121 563.85 1004.24 599.19 1004.45C642.27 1005.2 675.69 970.421 678.16 931.241C680.16 899.531 669.59 873.731 642.6 855.961C622.63 842.821 600.31 840.201 577.27 844.251C514.7 855.251 494.01 921.941 522.12 966.831ZM614.17 958.851C628.42 951.591 633.33 938.511 633.61 923.391C633.4 915.811 632.33 908.521 628.6 901.881C620.15 886.761 602.06 879.801 583.06 884.351C567.74 888.021 557.41 899.681 555.5 915.491C553.52 931.881 556.2 946.981 570.71 956.861C584.41 966.181 599.57 966.291 614.17 958.851Z" fill="#0B0A0B"/>
<path fill-rule="evenodd" clip-rule="evenodd" d="M197.29 965.051C213.46 992.571 239.26 1004.11 269.05 1004.43C275.22 1004.27 279.82 1004.05 284.42 1003.52C323.35 999.031 352.98 967.281 354.53 928.311C355.84 895.491 343.17 869.951 314.5 853.361C295.11 842.141 273.79 840.241 252.23 844.431C191.45 856.241 170.94 920.201 197.29 965.051ZM259.75 884.27C241.64 888.48 230.92 903.15 231.12 923.42C231.35 946.37 243.66 960.99 265.68 963.38C281.37 965.08 295.24 960.61 303.69 946.46C312.42 931.83 312.39 916.16 304.34 901.21C296.36 886.39 278.29 879.96 259.75 884.27Z" fill="#0B0A0B"/>
</svg>
